<svg width="22" height="16" viewBox="0 0 22 16" fill="none" xmlns="http://www.w3.org/2000/svg">
<path d="M21.5404 0.926758L11.8338 10.5934C11.584 10.8418 11.246 10.9811 10.8938 10.9811C10.5415 10.9811 10.2036 10.8418 9.95378 10.5934L0.333776 1.00009C0.304202 1.10878 0.288522 1.22079 0.287109 1.33342V14.6668C0.287109 15.0204 0.427585 15.3595 0.677634 15.6096C0.927682 15.8596 1.26682 16.0001 1.62044 16.0001H20.2871C20.6407 16.0001 20.9799 15.8596 21.2299 15.6096C21.48 15.3595 21.6204 15.0204 21.6204 14.6668V1.33342C21.6151 1.19453 21.5881 1.05731 21.5404 0.926758ZM2.53378 14.6668H1.60711V13.7134L6.45378 8.90676L7.39378 9.84676L2.53378 14.6668ZM20.2738 14.6668H19.3404L14.4804 9.84676L15.4204 8.90676L20.2671 13.7134L20.2738 14.6668Z" fill="#E0732F"/>
</svg>
