<svg width="23" height="28" viewBox="0 0 23 28" fill="none" xmlns="http://www.w3.org/2000/svg">
<path d="M17.3333 20.4912H5.33333V11.8245C5.33333 8.49121 8 5.82454 11.3333 5.82454C14.6667 5.82454 17.3333 8.49121 17.3333 11.8245V20.4912ZM20 19.1579V11.8245C20 7.73121 17.1467 4.30454 13.3333 3.39788V2.49121C13.3333 1.96078 13.1226 1.45207 12.7475 1.077C12.3725 0.701925 11.8638 0.491211 11.3333 0.491211C10.8029 0.491211 10.2942 0.701925 9.91912 1.077C9.54405 1.45207 9.33333 1.96078 9.33333 2.49121V3.39788C5.50667 4.30454 2.66667 7.73121 2.66667 11.8245V19.1579L0 21.8245V23.1579H22.6667V21.8245L20 19.1579ZM11.3333 27.1579C12.0406 27.1579 12.7189 26.8769 13.219 26.3768C13.719 25.8767 14 25.1985 14 24.4912H8.66667C8.66667 25.1985 8.94762 25.8767 9.44771 26.3768C9.94781 26.8769 10.6261 27.1579 11.3333 27.1579Z" fill="#E0732F"/>
</svg>
