<svg width="18" height="18" viewBox="0 0 18 18" fill="none" xmlns="http://www.w3.org/2000/svg">
<path d="M10.0003 4.99975C12.1033 4.99975 13.0003 5.89675 13.0003 7.99975H15.0003C15.0003 4.77475 13.2253 2.99975 10.0003 2.99975V4.99975ZM13.4223 10.4428C13.2301 10.2681 12.9776 10.175 12.7181 10.183C12.4585 10.191 12.2123 10.2996 12.0313 10.4858L9.63828 12.9468C9.06228 12.8368 7.90428 12.4758 6.71228 11.2868C5.52028 10.0938 5.15928 8.93275 5.05228 8.36075L7.51128 5.96675C7.69769 5.78588 7.80642 5.53957 7.81444 5.27996C7.82247 5.02034 7.72917 4.76779 7.55428 4.57575L3.85928 0.512751C3.68432 0.320107 3.44116 0.203255 3.18143 0.18701C2.92171 0.170766 2.66588 0.256409 2.46828 0.425751L0.298282 2.28675C0.125393 2.46027 0.0222015 2.6912 0.00828196 2.93575C-0.00671804 3.18575 -0.292718 9.10775 4.29928 13.7018C8.30528 17.7068 13.3233 17.9998 14.7053 17.9998C14.9073 17.9998 15.0313 17.9938 15.0643 17.9918C15.3088 17.9781 15.5396 17.8744 15.7123 17.7008L17.5723 15.5298C17.7417 15.3323 17.8276 15.0765 17.8115 14.8168C17.7954 14.5571 17.6788 14.3138 17.4863 14.1388L13.4223 10.4428Z" fill="#E0732F"/>
</svg>
